<svg xmlns="http://www.w3.org/2000/svg" xmlns:xlink="http://www.w3.org/1999/xlink" viewBox="0 0 5404.15 4485.36"><defs><style>.cls-1{fill:none;}.cls-2{clip-path:url(#clip-path);}.cls-3{fill:#fff;stroke:#2887c8;stroke-miterlimit:10;stroke-width:21px;}.cls-4{fill:#2887c8;}</style><clipPath id="clip-path"><polygon class="cls-1" points="4268.16 2502.66 487.68 3932.66 487.68 1931.23 4268.16 501.23 4268.16 2502.66"/></clipPath></defs><title>Asset 10</title><g id="Layer_2" data-name="Layer 2"><g id="Layer_1-2" data-name="Layer 1"><g class="cls-2"><polygon class="cls-3" points="2569.1 1886.81 2182.86 1886.81 1989.74 2221.31 2182.86 2555.8 2569.1 2555.8 2762.22 2221.31 2569.1 1886.81"/><polygon class="cls-3" points="3231.51 1512.96 2845.27 1512.96 2652.15 1847.45 2845.27 2181.95 3231.51 2181.95 3424.64 1847.45 3231.51 1512.96"/><polygon class="cls-3" points="3231.51 2264.19 2845.27 2264.19 2652.15 2598.68 2845.27 2933.18 3231.51 2933.18 3424.64 2598.68 3231.51 2264.19"/><polygon class="cls-3" points="3884.01 1888.58 3497.76 1888.58 3304.64 2223.07 3497.76 2557.57 3884.01 2557.57 4077.13 2223.07 3884.01 1888.58"/><polygon class="cls-3" points="3236.68 3027.42 2850.44 3027.42 2657.32 3361.91 2850.44 3696.41 3236.68 3696.41 3429.8 3361.91 3236.68 3027.42"/><polygon class="cls-3" points="3884.01 2645.04 3497.76 2645.04 3304.64 2979.54 3497.76 3314.03 3884.01 3314.03 4077.13 2979.54 3884.01 2645.04"/><polygon class="cls-3" points="4546.42 2264.19 4160.18 2264.19 3967.05 2598.68 4160.18 2933.18 4546.42 2933.18 4739.54 2598.68 4546.42 2264.19"/><polygon class="cls-3" points="3884.01 1135.58 3497.76 1135.58 3304.64 1470.08 3497.76 1804.58 3884.01 1804.58 4077.13 1470.08 3884.01 1135.58"/><polygon class="cls-3" points="4546.42 761.73 4160.18 761.73 3967.05 1096.22 4160.18 1430.72 4546.42 1430.72 4739.54 1096.22 4546.42 761.73"/><polygon class="cls-3" points="4546.42 1512.96 4160.18 1512.96 3967.05 1847.45 4160.18 2181.95 4546.42 2181.95 4739.54 1847.45 4546.42 1512.96"/><polygon class="cls-3" points="5198.91 1137.35 4812.67 1137.35 4619.55 1471.84 4812.67 1806.34 5198.91 1806.34 5392.03 1471.84 5198.91 1137.35"/><polygon class="cls-3" points="4546.42 10.5 4160.18 10.5 3967.05 345 4160.18 679.49 4546.42 679.49 4739.54 345 4546.42 10.5"/><polygon class="cls-3" points="2579.23 384.35 2192.99 384.35 1999.87 718.85 2192.99 1053.35 2579.23 1053.35 2772.35 718.85 2579.23 384.35"/><polygon class="cls-3" points="3241.64 10.5 2855.4 10.5 2662.28 345 2855.4 679.49 3241.64 679.49 3434.76 345 3241.64 10.5"/><polygon class="cls-3" points="3241.64 761.73 2855.4 761.73 2662.28 1096.22 2855.4 1430.72 3241.64 1430.72 3434.76 1096.22 3241.64 761.73"/><polygon class="cls-3" points="3894.14 386.12 3507.89 386.12 3314.77 720.61 3507.89 1055.11 3894.14 1055.11 4087.26 720.61 3894.14 386.12"/><polygon class="cls-3" points="1252.37 1120.06 866.13 1120.06 673 1454.56 866.13 1789.05 1252.37 1789.05 1445.49 1454.56 1252.37 1120.06"/><polygon class="cls-3" points="1914.78 746.21 1528.54 746.21 1335.42 1080.7 1528.54 1415.2 1914.78 1415.2 2107.9 1080.7 1914.78 746.21"/><polygon class="cls-3" points="1914.78 1497.44 1528.54 1497.44 1335.42 1831.93 1528.54 2166.43 1914.78 2166.43 2107.9 1831.93 1914.78 1497.44"/><polygon class="cls-3" points="594.46 1507.44 208.22 1507.44 15.1 1841.93 208.22 2176.43 594.46 2176.43 787.58 1841.93 594.46 1507.44"/><polygon class="cls-3" points="1256.87 1884.81 870.63 1884.81 677.51 2219.31 870.63 2553.8 1256.87 2553.8 1449.99 2219.31 1256.87 1884.81"/><polygon class="cls-3" points="2567.27 1121.82 2181.03 1121.82 1987.91 1456.32 2181.03 1790.81 2567.27 1790.81 2760.39 1456.32 2567.27 1121.82"/><polygon class="cls-3" points="1256.56 2645.04 870.32 2645.04 677.2 2979.54 870.32 3314.03 1256.56 3314.03 1449.68 2979.54 1256.56 2645.04"/><polygon class="cls-3" points="1261.28 3420.56 875.04 3420.56 681.92 3755.05 875.04 4089.55 1261.28 4089.55 1454.4 3755.05 1261.28 3420.56"/><polygon class="cls-3" points="594.84 3805.87 208.6 3805.87 15.48 4140.37 208.6 4474.86 594.84 4474.86 787.96 4140.37 594.84 3805.87"/><polygon class="cls-3" points="591.49 2264.19 205.25 2264.19 12.12 2598.68 205.25 2933.18 591.49 2933.18 784.61 2598.68 591.49 2264.19"/><polygon class="cls-3" points="594.84 3047.75 208.6 3047.75 15.48 3382.25 208.6 3716.74 594.84 3716.74 787.96 3382.25 594.84 3047.75"/><polygon class="cls-3" points="1918.97 2271.19 1532.73 2271.19 1339.61 2605.68 1532.73 2940.18 1918.97 2940.18 2112.09 2605.68 1918.97 2271.19"/><polygon class="cls-3" points="1918.97 3022.42 1532.73 3022.42 1339.61 3356.91 1532.73 3691.41 1918.97 3691.41 2112.09 3356.91 1918.97 3022.42"/><polygon class="cls-3" points="2571.46 2646.8 2185.22 2646.8 1992.1 2981.3 2185.22 3315.8 2571.46 3315.8 2764.58 2981.3 2571.46 2646.8"/><path class="cls-4" d="M2085.3,2279.19h-11.61V2161.72h37.21q16.79,0,26.78,9.07t10,24.35a32.63,32.63,0,0,1-5.12,18.14,29.4,29.4,0,0,1-14,11.46q-8.91,3.57-25.53,3.56h-12.43v38.44m17.38-90.07h-17.38v36.69H2109q10.24,0,15.79-4.82t5.54-13.81Q2130.29,2176.66,2108,2176.66Z"/><path class="cls-4" d="M2174.83,2279.19h-12.05v-117.3h29.39q17.8,0,28.25,8.82t10.45,23.84a29.34,29.34,0,0,1-19.82,28.88,51.85,51.85,0,0,1,11,10.08q5.38,6.39,15.11,22.25,6.12,10,9.82,15l6.21,8.4h-20l-5.12-7.73a15.89,15.89,0,0,0-1-1.43l-3.26-4.62-5.2-8.57-5.62-9.15a91.31,91.31,0,0,0-9.54-11.5,35.92,35.92,0,0,0-7.81-6.16q-3.5-1.89-11.73-1.89h-4.36v39.8m5-91.78h-5v37H2186q12.75,0,17.5-2.19a16.42,16.42,0,0,0,7.4-6.59,19.12,19.12,0,0,0,2.64-10,18,18,0,0,0-2.94-10,15.76,15.76,0,0,0-8.27-6.34Q2197,2176.16,2184.61,2176.16Z"/><path class="cls-4" d="M2329.13,2279h-63V2161.89h66.51v14.95H2283v35.77h48v15h-48v36.44h51.3v2.81"/><path class="cls-4" d="M2426.42,2161.89h16.73l-49.6,117.81h-3.8l-50.56-117.81h16.91l35.28,82.37Z"/><path class="cls-4" d="M2467.21,2279.19H2456.5v-117.3h13.61l79.1,91.11v-91.11h15.95v105h0l-5.19,12.31h-9.25l-78.43-90.34v78.27"/><path class="cls-4" d="M2632.23,2279.19H2620.5V2176.66h-40.23v-14.95h98v14.95h-40.89v90.26"/></g></g></g></svg>