<svg xmlns="http://www.w3.org/2000/svg" viewBox="0 0 166.46 144.16"><defs><style>.cls-1{fill:none;stroke:#26b6c4;stroke-miterlimit:10;stroke-width:3px;}.cls-2{fill:#26b6c4;}</style></defs><title>Asset 3</title><g id="Layer_2" data-name="Layer 2"><g id="Layer_1-2" data-name="Layer 1"><polygon class="cls-1" points="123.98 1.5 42.48 1.5 1.73 72.08 42.48 142.66 123.98 142.66 164.73 72.08 123.98 1.5"/><path class="cls-2" d="M21.9,84.29H19.45V59.51H27.3a8.09,8.09,0,0,1,5.65,1.91,6.6,6.6,0,0,1,2.11,5.14A6.88,6.88,0,0,1,34,70.38a6.2,6.2,0,0,1-3,2.42,15.08,15.08,0,0,1-5.39.75H23v8.11m3.67-19H23V70.4h3.88a4.92,4.92,0,0,0,3.33-1,3.66,3.66,0,0,0,1.17-2.91Q31.39,62.66,26.68,62.66Z"/><path class="cls-2" d="M40.79,84.29H38.24V59.54h6.2a8.94,8.94,0,0,1,6,1.86,6.23,6.23,0,0,1,2.21,5,6.19,6.19,0,0,1-4.18,6.09,10.94,10.94,0,0,1,2.32,2.13,42.82,42.82,0,0,1,3.19,4.7q1.29,2.11,2.07,3.17l1.31,1.77H53.11L52,82.66a3.35,3.35,0,0,0-.21-.3l-.69-1L50,79.58l-1.19-1.93a19.27,19.27,0,0,0-2-2.43,7.58,7.58,0,0,0-1.65-1.3,5.57,5.57,0,0,0-2.48-.4h-.92v8.4m1.06-19.37H41.79v7.81h1.35a10,10,0,0,0,3.69-.46,3.47,3.47,0,0,0,1.56-1.39,4,4,0,0,0,.56-2.12,3.8,3.8,0,0,0-.62-2.12,3.33,3.33,0,0,0-1.75-1.34A12.58,12.58,0,0,0,42.85,62.55Z"/><path class="cls-2" d="M73.35,84.26H60.06V59.54h14V62.7H63.6v7.55H73.74v3.17H63.6V81.1H74.43v.59"/><path class="cls-2" d="M93.87,59.54H97.4L86.94,84.4h-.8L75.47,59.54H79l7.44,17.38Z"/><path class="cls-2" d="M102.48,84.29h-2.26V59.54h2.87l16.69,19.22V59.54h3.37V81.7h0l-1.1,2.6h-2L103.55,65.23V81.75"/><path class="cls-2" d="M137.3,84.29h-2.47V62.66h-8.49V59.51H147v3.15h-8.63v19"/></g></g></svg>