<svg xmlns="http://www.w3.org/2000/svg" viewBox="0 0 8027.78 5216.61"><defs><style>.cls-1{fill:#fff;}.cls-2{fill:none;stroke:#2887c8;stroke-miterlimit:10;stroke-width:21px;}.cls-3{fill:#2887c8;}</style></defs><title>Asset 11</title><g id="Layer_2" data-name="Layer 2"><g id="Layer_1-2" data-name="Layer 1"><rect class="cls-1" x="784.61" y="718.44" width="6977.93" height="3806.81"/><polygon class="cls-2" points="2569.1 2276.43 2182.86 2276.43 1989.74 2610.92 2182.86 2945.42 2569.1 2945.42 2762.22 2610.92 2569.1 2276.43"/><polygon class="cls-2" points="3231.51 1902.58 2845.27 1902.58 2652.15 2237.07 2845.27 2571.57 3231.51 2571.57 3424.64 2237.07 3231.51 1902.58"/><polygon class="cls-2" points="3231.51 2653.8 2845.27 2653.8 2652.15 2988.3 2845.27 3322.8 3231.51 3322.8 3424.64 2988.3 3231.51 2653.8"/><polygon class="cls-2" points="3884.01 2278.19 3497.76 2278.19 3304.64 2612.68 3497.76 2947.18 3884.01 2947.18 4077.13 2612.68 3884.01 2278.19"/><polygon class="cls-2" points="3236.68 3417.03 2850.44 3417.03 2657.32 3751.53 2850.44 4086.03 3236.68 4086.03 3429.8 3751.53 3236.68 3417.03"/><polygon class="cls-2" points="3884.01 3034.66 3497.76 3034.66 3304.64 3369.15 3497.76 3703.65 3884.01 3703.65 4077.13 3369.15 3884.01 3034.66"/><polygon class="cls-2" points="4546.42 2653.8 4160.18 2653.8 3967.05 2988.3 4160.18 3322.8 4546.42 3322.8 4739.54 2988.3 4546.42 2653.8"/><polygon class="cls-2" points="3884.01 1525.2 3497.76 1525.2 3304.64 1859.69 3497.76 2194.19 3884.01 2194.19 4077.13 1859.69 3884.01 1525.2"/><polygon class="cls-2" points="4546.42 1151.35 4160.18 1151.35 3967.05 1485.84 4160.18 1820.34 4546.42 1820.34 4739.54 1485.84 4546.42 1151.35"/><polygon class="cls-2" points="4546.42 1902.58 4160.18 1902.58 3967.05 2237.07 4160.18 2571.57 4546.42 2571.57 4739.54 2237.07 4546.42 1902.58"/><polygon class="cls-2" points="5198.91 1526.96 4812.67 1526.96 4619.55 1861.45 4812.67 2195.95 5198.91 2195.95 5392.03 1861.45 5198.91 1526.96"/><polygon class="cls-2" points="4546.42 400.12 4160.18 400.12 3967.05 734.61 4160.18 1069.11 4546.42 1069.11 4739.54 734.61 4546.42 400.12"/><polygon class="cls-2" points="2579.23 773.97 2192.99 773.97 1999.87 1108.46 2192.99 1442.96 2579.23 1442.96 2772.35 1108.46 2579.23 773.97"/><polygon class="cls-2" points="3241.64 400.12 2855.4 400.12 2662.28 734.61 2855.4 1069.11 3241.64 1069.11 3434.76 734.61 3241.64 400.12"/><polygon class="cls-2" points="3241.64 1151.35 2855.4 1151.35 2662.28 1485.84 2855.4 1820.34 3241.64 1820.34 3434.76 1485.84 3241.64 1151.35"/><polygon class="cls-2" points="3894.14 775.73 3507.89 775.73 3314.77 1110.22 3507.89 1444.72 3894.14 1444.72 4087.26 1110.22 3894.14 775.73"/><polygon class="cls-2" points="5852.14 1143.35 5465.9 1143.35 5272.78 1477.84 5465.9 1812.34 5852.14 1812.34 6045.26 1477.84 5852.14 1143.35"/><polygon class="cls-2" points="6504.63 765.97 6118.39 765.97 5925.27 1100.46 6118.39 1434.96 6504.63 1434.96 6697.75 1100.46 6504.63 765.97"/><polygon class="cls-2" points="7167.04 392.12 6780.8 392.12 6587.68 726.61 6780.8 1061.11 7167.04 1061.11 7360.16 726.61 7167.04 392.12"/><polygon class="cls-2" points="7167.04 1143.35 6780.8 1143.35 6587.68 1477.84 6780.8 1812.34 7167.04 1812.34 7360.16 1477.84 7167.04 1143.35"/><polygon class="cls-2" points="7819.53 767.73 7433.29 767.73 7240.17 1102.22 7433.29 1436.72 7819.53 1436.72 8012.66 1102.22 7819.53 767.73"/><polygon class="cls-2" points="5862.27 392.12 5476.03 392.12 5282.91 726.61 5476.03 1061.11 5862.27 1061.11 6055.39 726.61 5862.27 392.12"/><polygon class="cls-2" points="6514.76 16.5 6128.52 16.5 5935.4 351 6128.52 685.49 6514.76 685.49 6707.88 351 6514.76 16.5"/><polygon class="cls-2" points="5855.14 1137.35 5468.9 1137.35 5275.78 1471.84 5468.9 1806.34 5855.14 1806.34 6048.26 1471.84 5855.14 1137.35"/><polygon class="cls-2" points="6507.63 759.97 6121.39 759.97 5928.27 1094.46 6121.39 1428.96 6507.63 1428.96 6700.75 1094.46 6507.63 759.97"/><polygon class="cls-2" points="7170.04 386.12 6783.8 386.12 6590.68 720.61 6783.8 1055.11 7170.04 1055.11 7363.16 720.61 7170.04 386.12"/><polygon class="cls-2" points="7170.04 1137.35 6783.8 1137.35 6590.68 1471.84 6783.8 1806.34 7170.04 1806.34 7363.16 1471.84 7170.04 1137.35"/><polygon class="cls-2" points="7822.53 761.73 7436.29 761.73 7243.17 1096.22 7436.29 1430.72 7822.53 1430.72 8015.66 1096.22 7822.53 761.73"/><polygon class="cls-2" points="5865.27 386.12 5479.03 386.12 5285.91 720.61 5479.03 1055.11 5865.27 1055.11 6058.39 720.61 5865.27 386.12"/><polygon class="cls-2" points="6517.76 10.5 6131.52 10.5 5938.4 345 6131.52 679.49 6517.76 679.49 6710.88 345 6517.76 10.5"/><polygon class="cls-2" points="1252.37 1509.68 866.13 1509.68 673 1844.17 866.13 2178.67 1252.37 2178.67 1445.49 1844.17 1252.37 1509.68"/><polygon class="cls-2" points="1914.78 1135.82 1528.54 1135.82 1335.42 1470.32 1528.54 1804.81 1914.78 1804.81 2107.9 1470.32 1914.78 1135.82"/><polygon class="cls-2" points="1914.78 1887.05 1528.54 1887.05 1335.42 2221.55 1528.54 2556.04 1914.78 2556.04 2107.9 2221.55 1914.78 1887.05"/><polygon class="cls-2" points="594.46 1897.05 208.22 1897.05 15.1 2231.55 208.22 2566.04 594.46 2566.04 787.58 2231.55 594.46 1897.05"/><polygon class="cls-2" points="1256.87 2274.43 870.63 2274.43 677.51 2608.92 870.63 2943.42 1256.87 2943.42 1449.99 2608.92 1256.87 2274.43"/><polygon class="cls-2" points="2567.27 1511.44 2181.03 1511.44 1987.91 1845.93 2181.03 2180.43 2567.27 2180.43 2760.39 1845.93 2567.27 1511.44"/><polygon class="cls-2" points="1256.56 3034.66 870.32 3034.66 677.2 3369.15 870.32 3703.65 1256.56 3703.65 1449.68 3369.15 1256.56 3034.66"/><polygon class="cls-2" points="1261.28 3810.17 875.04 3810.17 681.92 4144.67 875.04 4479.16 1261.28 4479.16 1454.4 4144.67 1261.28 3810.17"/><polygon class="cls-2" points="594.84 4195.49 208.6 4195.49 15.48 4529.98 208.6 4864.48 594.84 4864.48 787.96 4529.98 594.84 4195.49"/><polygon class="cls-2" points="591.49 2653.8 205.25 2653.8 12.12 2988.3 205.25 3322.8 591.49 3322.8 784.61 2988.3 591.49 2653.8"/><polygon class="cls-2" points="594.84 3437.37 208.6 3437.37 15.48 3771.86 208.6 4106.36 594.84 4106.36 787.96 3771.86 594.84 3437.37"/><polygon class="cls-2" points="1918.97 2660.8 1532.73 2660.8 1339.61 2995.3 1532.73 3329.8 1918.97 3329.8 2112.09 2995.3 1918.97 2660.8"/><polygon class="cls-2" points="1918.97 3412.03 1532.73 3412.03 1339.61 3746.53 1532.73 4081.03 1918.97 4081.03 2112.09 3746.53 1918.97 3412.03"/><polygon class="cls-2" points="2571.46 3036.42 2185.22 3036.42 1992.1 3370.91 2185.22 3705.41 2571.46 3705.41 2764.58 3370.91 2571.46 3036.42"/><path class="cls-3" d="M2085.3,2668.8h-11.61V2551.33h37.21q16.79,0,26.78,9.07t10,24.35a32.63,32.63,0,0,1-5.12,18.14,29.4,29.4,0,0,1-14,11.46q-8.91,3.57-25.53,3.56h-12.43v38.44m17.38-90.07h-17.38V2603H2109q10.24,0,15.79-4.82t5.54-13.81Q2130.29,2566.28,2108,2566.28Z"/><path class="cls-3" d="M2174.83,2668.8h-12.05V2551.5h29.39q17.8,0,28.25,8.82t10.45,23.84a29.34,29.34,0,0,1-19.82,28.88,51.85,51.85,0,0,1,11,10.08q5.38,6.39,15.11,22.25,6.12,10,9.82,15l6.21,8.4h-20l-5.12-7.73a15.89,15.89,0,0,0-1-1.43l-3.26-4.62-5.2-8.57-5.62-9.15a91.31,91.31,0,0,0-9.54-11.5,35.92,35.92,0,0,0-7.81-6.16q-3.5-1.89-11.73-1.89h-4.36v39.8m5-91.78h-5v37H2186q12.75,0,17.5-2.19a16.42,16.42,0,0,0,7.4-6.59,19.12,19.12,0,0,0,2.64-10,18,18,0,0,0-2.94-10,15.76,15.76,0,0,0-8.27-6.34Q2197,2565.77,2184.61,2565.77Z"/><path class="cls-3" d="M2329.13,2668.63h-63V2551.5h66.51v14.95H2283v35.77h48v15h-48v36.44h51.3v2.81"/><path class="cls-3" d="M2426.42,2551.5h16.73l-49.6,117.81h-3.8L2339.2,2551.5h16.91l35.28,82.37Z"/><path class="cls-3" d="M2467.21,2668.8H2456.5V2551.5h13.61l79.1,91.11V2551.5h15.95v105h0L2560,2668.8h-9.25l-78.43-90.34v78.27"/><path class="cls-3" d="M2632.23,2668.8H2620.5V2566.28h-40.23v-14.95h98v14.95h-40.89v90.26"/><polygon class="cls-2" points="5192.73 3780.65 4806.48 3780.65 4613.36 4115.15 4806.48 4449.64 5192.73 4449.64 5385.85 4115.15 5192.73 3780.65"/><polygon class="cls-2" points="5192.73 4537.12 4806.48 4537.12 4613.36 4871.61 4806.48 5206.11 5192.73 5206.11 5385.85 4871.61 5192.73 4537.12"/><polygon class="cls-2" points="5855.14 4156.26 5468.9 4156.26 5275.78 4490.76 5468.9 4825.26 5855.14 4825.26 6048.26 4490.76 5855.14 4156.26"/><polygon class="cls-2" points="5192.73 3027.66 4806.48 3027.66 4613.36 3362.15 4806.48 3696.65 5192.73 3696.65 5385.85 3362.15 5192.73 3027.66"/><polygon class="cls-2" points="5855.14 2653.8 5468.9 2653.8 5275.78 2988.3 5468.9 3322.8 5855.14 3322.8 6048.26 2988.3 5855.14 2653.8"/><polygon class="cls-2" points="5855.14 3405.03 5468.9 3405.03 5275.78 3739.53 5468.9 4074.03 5855.14 4074.03 6048.26 3739.53 5855.14 3405.03"/><polygon class="cls-2" points="6507.63 3029.42 6121.39 3029.42 5928.27 3363.91 6121.39 3698.41 6507.63 3698.41 6700.75 3363.91 6507.63 3029.42"/><polygon class="cls-2" points="5855.14 1902.58 5468.9 1902.58 5275.78 2237.07 5468.9 2571.57 5855.14 2571.57 6048.26 2237.07 5855.14 1902.58"/><polygon class="cls-2" points="5202.86 2278.19 4816.61 2278.19 4623.49 2612.68 4816.61 2947.18 5202.86 2947.18 5395.98 2612.68 5202.86 2278.19"/></g></g></svg>